<svg aria-hidden="true" style="position: absolute; width: 0; height: 0; overflow: hidden;" version="1.1"
    xmlns="http://www.w3.org/2000/svg" xmlns:xlink="http://www.w3.org/1999/xlink">
    <defs>
        <symbol id="plus" viewBox="0 0 32 32">
            <path
                d="M0 16c0-8.832 7.168-16 16-16s16 7.168 16 16c0 8.832-7.168 16-16 16s-16-7.168-16-16zM17.6 17.6h6.4v-3.2h-6.4v-6.4h-3.2v6.4h-6.4v3.2h6.4v6.4h3.2v-6.4z">
            </path>
        </symbol>
        <symbol id="minus" viewBox="0 0 32 32">
            <path
                d="M0 16c0-8.832 7.168-16 16-16s16 7.168 16 16c0 8.832-7.168 16-16 16s-16-7.168-16-16zM8 17.6h16v-3.2h-16v3.2z">
            </path>
        </symbol>
        <symbol id="clock" viewBox="0 0 26 32">
            <path
                d="M23.664 2.689h1.614c0.302 0 0.538-0.235 0.538-0.538v-1.076c0-0.303-0.235-0.538-0.538-0.538h-24.74c-0.303 0-0.538 0.235-0.538 0.538v1.076c0 0.303 0.235 0.538 0.538 0.538h1.613c0 6.219 2.975 10.723 6.269 12.908-3.294 2.185-6.269 6.689-6.269 12.908h-1.613c-0.303 0-0.538 0.235-0.538 0.538v1.076c0 0.302 0.235 0.538 0.538 0.538h24.74c0.302 0 0.538-0.235 0.538-0.538v-1.076c0-0.302-0.235-0.538-0.538-0.538h-1.614c0-6.219-2.975-10.723-6.269-12.908 3.294-2.185 6.269-6.689 6.269-12.908zM21.513 2.689c0 2.454-0.555 4.622-1.429 6.454h-14.353c-0.874-1.832-1.429-4-1.429-6.454h17.21zM20.555 23.126h-15.294c1.244-3.244 3.479-5.546 5.714-6.454h3.866c2.235 0.908 4.471 3.21 5.714 6.454z">
            </path>
        </symbol>
        <symbol id="check" viewBox="0 0 45 32">
            <path
                d="M42.17 0.638c-0.834-0.851-2.188-0.851-3.022 0l-25.606 26.102-9.843-10.033c-0.835-0.851-2.188-0.851-3.023 0s-0.835 2.23 0 3.081l11.354 11.574c0.834 0.851 2.189 0.85 3.023 0l27.117-27.643c0.835-0.851 0.835-2.23 0-3.081z">
            </path>
        </symbol>
        <symbol id="mobile" viewBox="0 0 21 32">
            <path
                d="M16.935 2.286h-13.299c-1.377 0-2.494 1.152-2.494 2.571v22.286c0 1.42 1.117 2.571 2.494 2.571h13.299c1.377 0 2.494-1.152 2.494-2.571v-22.286c0-1.42-1.117-2.571-2.494-2.571zM12.779 26.238c0 0.52-0.374 0.905-0.831 0.905h-3.371c-0.41 0-0.784-0.386-0.784-0.857s0.374-0.857 0.831-0.857h3.325c0.457 0 0.831 0.386 0.831 0.809zM16.104 22.857h-11.636v-17.143h11.636v17.143z">
            </path>
        </symbol>
        <symbol id="twitter" viewBox="0 0 32 32">
            <path stroke-linejoin="round" stroke-linecap="round" stroke-miterlimit="4" stroke-width="2.6667"
                d="M30.667 4.013c-1.277 0.901-2.691 1.589-4.187 2.040-0.803-0.923-1.87-1.578-3.057-1.875s-2.437-0.222-3.58 0.214c-1.143 0.436-2.125 1.213-2.812 2.226s-1.047 2.211-1.031 3.435v1.333c-2.343 0.061-4.665-0.459-6.759-1.513s-3.894-2.609-5.241-4.527c0 0-5.333 12 6.667 17.333-2.746 1.864-6.017 2.799-9.333 2.667 12 6.667 26.667 0 26.667-15.333-0.001-0.371-0.037-0.742-0.107-1.107 1.361-1.342 2.321-3.036 2.773-4.893v0z">
            </path>
        </symbol>
        <symbol id="facebook" viewBox="0 0 32 32">
            <path stroke-linejoin="round" stroke-linecap="round" stroke-miterlimit="4" stroke-width="2.6667"
                d="M24 2.667h-4c-1.768 0-3.464 0.702-4.714 1.953s-1.953 2.946-1.953 4.714v4h-4v5.333h4v10.667h5.333v-10.667h4l1.333-5.333h-5.333v-4c0-0.354 0.141-0.693 0.391-0.943s0.589-0.391 0.943-0.391h4v-5.333z">
            </path>
        </symbol>
        <symbol id="instagram" viewBox="0 0 32 32">
            <path stroke-linejoin="round" stroke-linecap="round" stroke-miterlimit="4" stroke-width="2.6667"
                d="M22.667 2.667h-13.333c-3.682 0-6.667 2.985-6.667 6.667v13.333c0 3.682 2.985 6.667 6.667 6.667h13.333c3.682 0 6.667-2.985 6.667-6.667v-13.333c0-3.682-2.985-6.667-6.667-6.667z">
            </path>
            <path stroke-linejoin="round" stroke-linecap="round" stroke-miterlimit="4" stroke-width="2.6667"
                d="M21.333 15.16c0.165 1.11-0.025 2.243-0.542 3.239s-1.334 1.803-2.336 2.308c-1.002 0.504-2.138 0.68-3.245 0.502s-2.131-0.701-2.924-1.494-1.316-1.816-1.494-2.924c-0.178-1.107-0.003-2.243 0.502-3.245s1.312-1.82 2.307-2.336c0.996-0.517 2.129-0.706 3.239-0.542 1.132 0.168 2.18 0.695 2.989 1.504s1.337 1.857 1.505 2.989z">
            </path>
            <path stroke-linejoin="round" stroke-linecap="round" stroke-miterlimit="4" stroke-width="2.6667"
                d="M23.333 8.667h0.013"></path>
        </symbol>
        <symbol id="heart" viewBox="0 0 34 32">
            <path
                d="M17.067 30.172c0.305 0 0.61-0.114 0.838-0.343l11.867-11.428c0.171-0.171 4.362-4 4.362-8.571 0-5.581-3.41-8.914-9.105-8.914-3.333 0-6.457 2.629-7.962 4.114-1.505-1.486-4.629-4.114-7.962-4.114-5.695 0-9.105 3.333-9.105 8.914 0 4.571 4.191 8.4 4.343 8.533l11.886 11.467c0.229 0.229 0.533 0.343 0.838 0.343z">
            </path>
        </symbol>
        <symbol id="wive" viewBox="0 0 41 32">
            <path
                d="M21.673 12.898l2.674 1.245 3.98-1.184v-2.775c0-4.714-3.98-8.49-8.735-8.49-4.735 0-8.735 3.755-8.735 8.429v12.653c0 1.163-0.939 2.082-2.082 2.082s-2.082-0.918-2.082-2.082v-5.347h-6.694c0 5.367 0 5.429 0 5.429 0 4.837 3.918 8.755 8.755 8.755 4.796 0 8.755-3.857 8.755-8.633v-12.49c0-1.143 0.939-2.082 2.082-2.082s2.082 0.939 2.082 2.082v2.408zM32.49 17.429v5.612c0 1.143-0.939 2.061-2.082 2.061s-2.082-0.918-2.082-2.061v-5.51l-3.98 1.184-2.674-1.245v5.469c0 4.796 3.939 8.674 8.755 8.674 4.837 0 8.755-3.918 8.755-8.755 0 0 0-0.061 0-5.429h-6.694z">
            </path>
        </symbol>
        <symbol id="point" viewBox="0 0 21 32">
            <path
                d="M19.042 18.067l-17.21-17.21c-0.202-0.219-0.471-0.319-0.756-0.319-0.134 0-0.286 0.034-0.403 0.084-0.403 0.168-0.672 0.555-0.672 0.992v25.277c0 0.437 0.269 0.824 0.672 0.992 0.118 0.050 0.269 0.084 0.403 0.084 0.286 0 0.555-0.118 0.756-0.319l5.244-5.244 3.21 7.597c0.235 0.538 0.857 0.807 1.412 0.571l2.975-1.261c0.538-0.235 0.807-0.857 0.571-1.412l-3.378-8h6.42c0.437 0 0.824-0.269 0.992-0.672 0.168-0.387 0.084-0.857-0.235-1.16z">
            </path>
        </symbol>

        <symbol id="icon-antenna-1-1" viewBox="0 0 32 32">
            <path fill="#2e2f42" style="fill: var(--color1, #2e2f42)"
                d="M30.773 22.098l-8.443-8.505 0.937-4.615c0.242 0.094 0.499 0.144 0.758 0.146h0.006c1.192 0.014 2.17-0.941 2.184-2.133s-0.941-2.17-2.133-2.184c-1.192-0.014-2.17 0.941-2.184 2.133-0.003 0.255 0.039 0.509 0.125 0.749l-4.96 0.605-8.091-8.133c-0.099-0.101-0.235-0.159-0.377-0.16-0.14 0.001-0.274 0.056-0.373 0.155l-1.513 1.504c-0.208 0.208-0.208 0.546 0 0.754l0.814 0.826c-3.153 5.798-2.129 12.978 2.519 17.663 0.043 0.041 0.092 0.074 0.146 0.098-0.034 0.18-0.051 0.364-0.052 0.547v6.187h-6.4c-1.472 0.002-2.665 1.195-2.667 2.667v1.067c0 0.295 0.239 0.533 0.533 0.533h24.533c0.295 0 0.533-0.239 0.533-0.533v-1.067c-0.002-1.472-1.195-2.665-2.667-2.667h-6.4v-2.742c1.003 0.21 2.024 0.317 3.049 0.32 2.458-0.003 4.877-0.615 7.040-1.783l0.818 0.823c0.099 0.101 0.235 0.159 0.377 0.16 0.14-0.001 0.274-0.056 0.373-0.155l1.513-1.504c0.208-0.208 0.208-0.546 0-0.754zM23.28 6.233c0.418-0.415 1.093-0.414 1.509 0.004s0.414 1.093-0.004 1.508c-0.2 0.199-0.47 0.31-0.752 0.31h-0.003c-0.589-0.003-1.064-0.483-1.061-1.072 0.002-0.282 0.115-0.552 0.314-0.751h-0.002zM22.024 9.738l-0.598 2.946-1.175-1.182 1.774-1.763zM21.419 8.836l-1.92 1.909-1.485-1.493 3.405-0.415zM24.004 28.8c0.884 0 1.6 0.716 1.6 1.6v0.533h-23.467v-0.533c0-0.884 0.716-1.6 1.6-1.6h20.267zM16.537 26.667v1.067h-5.333v-1.067h5.333zM11.204 25.6v-4.053c0-1.294 1.196-2.347 2.667-2.347s2.667 1.053 2.667 2.347v4.053h-5.333zM17.604 23.904v-2.357c0-1.882-1.675-3.413-3.733-3.413-1.331-0.020-2.576 0.657-3.281 1.786-4.058-4.274-4.971-10.645-2.279-15.887l18.602 18.708c-2.872 1.461-6.165 1.873-9.309 1.163zM28.893 23.22l-21.057-21.181 0.755-0.752 7.935 7.98c0.004 0 0.006 0.007 0.010 0.010l13.115 13.191-0.757 0.752z">
            </path>
            <path fill="#4d5ae5" style="fill: var(--color2, #4d5ae5)"
                d="M13.876 20.267h-0.005c-0.884-0.001-1.601 0.714-1.602 1.598s0.714 1.601 1.598 1.602h0.005c0.884 0.001 1.601-0.714 1.602-1.598s-0.714-1.601-1.598-1.602zM14.249 22.245c-0.1 0.1-0.236 0.156-0.378 0.155-0.295-0.002-0.532-0.242-0.531-0.536 0.001-0.141 0.057-0.276 0.157-0.375s0.233-0.154 0.373-0.155c0.295 0.002 0.532 0.242 0.531 0.536-0.001 0.141-0.057 0.276-0.157 0.375h0.005z">
            </path>
        </symbol>

        <symbol id="icon-minus_circle" viewBox="0 0 32 32">
            <path fill="#02897a" style="fill: var(--color1, #02897a)"
                d="M0 16c0-8.832 7.168-16 16-16s16 7.168 16 16c0 8.832-7.168 16-16 16s-16-7.168-16-16zM8 17.6h16v-3.2h-16v3.2z">
            </path>
        </symbol>

    </defs>
</svg>